<?xml version="1.0" encoding="utf-8"?>
<!-- Generator: Adobe Illustrator 28.0.0, SVG Export Plug-In . SVG Version: 6.00 Build 0)  -->
<svg version="1.1" id="Layer_1" xmlns="http://www.w3.org/2000/svg" xmlns:xlink="http://www.w3.org/1999/xlink" x="0px" y="0px"
	 viewBox="0 0 1280 1280" style="enable-background:new 0 0 1280 1280;" xml:space="preserve">
<style type="text/css">
	.st0{display:none;}
	.st1{display:inline;}
</style>
<g id="Layer_1_00000103265896221150116280000005629988651322603162_" class="st0">
	<g transform="translate(0.000000,640.000000) scale(0.100000,-0.100000)" class="st1">
		<path d="M3198,5C1439-1751,0-3191,0-3194s2880-6,6400-6s6400,3,6400,7c0,7-6388,6387-6399,6390C6398,3198,4956,1762,3198,5z"/>
	</g>
</g>
<g id="Layer_2_00000058550979741355328290000009362362512158449844_">
	<g transform="translate(0.000000,640.000000) scale(0.100000,-0.100000)">
		<path d="M3198-3193.5C1439-4950.3,0-6391,0-6394c0-3,2880-6,6400-6s6400,3,6400,7c0,7-6388,6390-6399,6393
			C6398,1,4956-1435.7,3198-3193.5z"/>
	</g>
</g>
</svg>
