<svg id="svg" version="1.1" xmlns="http://www.w3.org/2000/svg" xmlns:xlink="http://www.w3.org/1999/xlink" width="400" height="400" viewBox="0, 0, 400,400"><g id="svgg"><path id="path0" d="M63.707 50.053 C 63.474 50.286,62.364 50.470,61.241 50.462 C 60.119 50.453,59.200 50.616,59.200 50.823 C 59.200 51.030,58.480 51.200,57.600 51.200 C 56.720 51.200,56.000 51.380,56.000 51.600 C 56.000 51.820,55.295 52.000,54.433 52.000 C 53.572 52.000,52.799 52.203,52.717 52.450 C 52.634 52.698,52.079 52.900,51.483 52.900 C 50.888 52.900,50.400 53.058,50.400 53.250 C 50.400 53.442,49.860 53.600,49.200 53.600 C 48.540 53.600,48.000 53.780,48.000 54.000 C 48.000 54.220,47.629 54.400,47.176 54.400 C 46.723 54.400,46.464 54.580,46.600 54.800 C 46.744 55.033,46.337 55.200,45.624 55.200 C 44.951 55.200,44.400 55.380,44.400 55.600 C 44.400 55.820,44.117 56.000,43.771 56.000 C 43.426 56.000,42.871 56.272,42.539 56.604 C 42.207 56.936,41.770 57.105,41.568 56.980 C 41.365 56.855,41.200 56.899,41.200 57.079 C 41.200 57.258,40.615 57.642,39.900 57.932 C 39.185 58.222,38.195 58.622,37.700 58.821 C 37.205 59.020,36.800 59.361,36.800 59.579 C 36.800 59.797,36.500 59.860,36.134 59.719 C 35.687 59.548,35.564 59.617,35.758 59.932 C 35.942 60.230,35.754 60.400,35.238 60.400 C 34.792 60.400,34.235 60.760,34.000 61.200 C 33.765 61.640,33.205 62.000,32.757 62.000 C 31.884 62.000,31.223 62.523,30.486 63.800 C 30.232 64.240,30.019 64.364,30.012 64.076 C 30.005 63.788,29.817 63.666,29.593 63.804 C 29.370 63.942,29.309 64.253,29.459 64.496 C 29.625 64.764,29.509 64.851,29.164 64.718 C 28.851 64.598,28.365 64.748,28.082 65.050 C 27.800 65.353,27.711 65.604,27.884 65.609 C 28.058 65.614,27.615 65.907,26.900 66.259 C 26.069 66.669,25.589 67.206,25.568 67.750 C 25.551 68.217,25.452 68.392,25.348 68.139 C 25.140 67.631,23.200 69.350,23.200 70.042 C 23.200 70.265,23.065 70.372,22.900 70.279 C 22.735 70.186,21.498 71.248,20.150 72.639 C 18.803 74.029,17.903 75.250,18.150 75.352 C 18.398 75.454,18.217 75.551,17.750 75.568 C 17.206 75.589,16.669 76.069,16.259 76.900 C 15.907 77.615,15.614 78.058,15.609 77.884 C 15.604 77.711,15.353 77.800,15.050 78.082 C 14.748 78.365,14.590 78.829,14.699 79.114 C 14.810 79.403,14.663 79.581,14.367 79.516 C 14.075 79.452,13.828 79.584,13.818 79.809 C 13.808 80.035,13.395 80.653,12.900 81.185 C 12.405 81.716,12.000 82.387,12.000 82.675 C 12.000 82.964,11.809 83.200,11.576 83.200 C 11.343 83.200,11.252 83.361,11.374 83.558 C 11.496 83.755,11.326 84.019,10.998 84.146 C 10.669 84.272,10.400 84.751,10.400 85.211 C 10.400 85.748,10.232 85.944,9.932 85.758 C 9.617 85.564,9.548 85.687,9.719 86.134 C 9.860 86.500,9.797 86.800,9.579 86.800 C 9.361 86.800,8.984 87.295,8.741 87.900 C 7.857 90.101,6.593 92.603,6.300 92.733 C 6.135 92.807,6.000 93.212,6.000 93.633 C 6.000 94.055,5.820 94.400,5.600 94.400 C 5.380 94.400,5.200 94.951,5.200 95.624 C 5.200 96.337,5.033 96.744,4.800 96.600 C 4.580 96.464,4.400 96.723,4.400 97.176 C 4.400 97.629,4.220 98.000,4.000 98.000 C 3.780 98.000,3.600 98.540,3.600 99.200 C 3.600 99.860,3.442 100.400,3.250 100.400 C 3.058 100.400,2.900 100.888,2.900 101.483 C 2.900 102.079,2.698 102.634,2.450 102.717 C 2.203 102.799,2.000 103.572,2.000 104.433 C 2.000 105.295,1.857 106.000,1.682 106.000 C 1.507 106.000,1.318 106.670,1.263 107.488 C 1.208 108.306,1.006 109.072,0.815 109.191 C -0.101 109.757,-0.101 290.243,0.815 290.809 C 1.006 290.928,1.208 291.694,1.263 292.512 C 1.318 293.330,1.507 294.000,1.682 294.000 C 1.857 294.000,2.000 294.705,2.000 295.567 C 2.000 296.428,2.203 297.201,2.450 297.283 C 2.698 297.366,2.900 297.921,2.900 298.517 C 2.900 299.113,3.058 299.600,3.250 299.600 C 3.442 299.600,3.600 300.140,3.600 300.800 C 3.600 301.460,3.780 302.000,4.000 302.000 C 4.220 302.000,4.400 302.371,4.400 302.824 C 4.400 303.277,4.580 303.536,4.800 303.400 C 5.033 303.256,5.200 303.663,5.200 304.376 C 5.200 305.049,5.380 305.600,5.600 305.600 C 5.820 305.600,6.000 305.945,6.000 306.367 C 6.000 306.788,6.135 307.193,6.300 307.267 C 6.691 307.441,8.536 311.083,8.660 311.926 C 8.712 312.285,9.006 312.763,9.313 312.989 C 9.619 313.215,9.786 313.650,9.683 313.956 C 9.570 314.293,9.674 314.402,9.948 314.232 C 10.229 314.059,10.400 314.269,10.400 314.789 C 10.400 315.249,10.669 315.728,10.998 315.854 C 11.326 315.981,11.496 316.245,11.374 316.442 C 11.252 316.639,11.343 316.800,11.576 316.800 C 11.809 316.800,12.000 317.036,12.000 317.325 C 12.000 317.613,12.405 318.284,12.900 318.815 C 13.395 319.347,13.808 319.965,13.818 320.191 C 13.828 320.416,14.075 320.548,14.367 320.484 C 14.663 320.419,14.810 320.597,14.699 320.886 C 14.590 321.171,14.748 321.635,15.050 321.918 C 15.353 322.200,15.604 322.289,15.609 322.116 C 15.614 321.942,15.907 322.385,16.259 323.100 C 16.669 323.931,17.206 324.411,17.750 324.432 C 18.217 324.449,18.398 324.546,18.151 324.648 C 17.649 324.854,21.712 329.200,22.406 329.200 C 22.649 329.200,22.774 329.335,22.684 329.500 C 22.478 329.878,25.090 332.377,25.384 332.083 C 25.503 331.964,25.600 332.144,25.600 332.483 C 25.600 332.823,26.185 333.388,26.900 333.741 C 27.615 334.093,28.058 334.386,27.884 334.391 C 27.711 334.396,27.800 334.647,28.082 334.950 C 28.365 335.252,28.851 335.402,29.164 335.282 C 29.509 335.149,29.625 335.236,29.459 335.504 C 29.309 335.747,29.370 336.058,29.593 336.196 C 29.817 336.334,30.005 336.212,30.012 335.924 C 30.019 335.636,30.231 335.760,30.483 336.200 C 31.093 337.264,32.045 337.972,32.886 337.987 C 33.263 337.994,33.765 338.360,34.000 338.800 C 34.235 339.240,34.692 339.600,35.014 339.600 C 35.336 339.600,35.600 339.799,35.600 340.043 C 35.600 340.286,35.870 340.382,36.200 340.255 C 36.530 340.129,36.800 340.203,36.800 340.421 C 36.800 340.639,37.295 341.016,37.900 341.259 C 40.101 342.143,42.603 343.407,42.733 343.700 C 42.807 343.865,43.212 344.000,43.633 344.000 C 44.055 344.000,44.400 344.180,44.400 344.400 C 44.400 344.620,44.951 344.800,45.624 344.800 C 46.337 344.800,46.744 344.967,46.600 345.200 C 46.464 345.420,46.723 345.600,47.176 345.600 C 47.629 345.600,48.000 345.780,48.000 346.000 C 48.000 346.220,48.540 346.400,49.200 346.400 C 49.860 346.400,50.400 346.558,50.400 346.750 C 50.400 346.943,50.888 347.100,51.483 347.100 C 52.079 347.100,52.634 347.303,52.717 347.550 C 52.799 347.798,53.572 348.000,54.433 348.000 C 55.295 348.000,56.000 348.143,56.000 348.318 C 56.000 348.493,56.675 348.681,57.500 348.736 C 58.325 348.790,59.060 349.007,59.133 349.218 C 59.207 349.428,60.231 349.600,61.410 349.600 C 62.588 349.600,63.661 349.775,63.794 349.990 C 64.112 350.505,144.682 350.544,144.867 350.029 C 144.940 349.826,145.259 349.602,145.575 349.530 C 146.312 349.363,149.531 346.286,149.338 345.932 C 149.258 345.785,149.461 345.396,149.788 345.069 C 150.712 344.145,150.684 305.395,149.759 305.040 C 149.415 304.908,149.208 304.576,149.299 304.303 C 149.476 303.772,149.038 303.267,147.783 302.556 C 147.352 302.312,147.010 301.952,147.022 301.756 C 147.053 301.260,146.257 300.449,145.932 300.646 C 145.785 300.735,145.394 300.537,145.064 300.207 C 144.610 299.753,144.416 299.728,144.264 300.104 C 144.105 300.496,144.057 300.496,144.032 300.100 C 144.007 299.704,136.836 299.600,109.600 299.600 C 86.739 299.600,75.200 299.465,75.200 299.197 C 75.200 298.975,74.525 298.818,73.700 298.848 C 70.799 298.953,68.755 298.797,68.948 298.485 C 69.055 298.312,68.670 298.131,68.094 298.083 C 67.517 298.035,66.945 297.842,66.822 297.655 C 66.700 297.467,66.285 297.362,65.900 297.421 C 65.513 297.481,65.200 297.277,65.200 296.965 C 65.200 296.596,64.750 296.398,63.900 296.394 C 62.914 296.389,62.745 296.294,63.200 296.000 C 63.685 295.686,63.628 295.611,62.900 295.606 C 62.405 295.603,62.000 295.409,62.000 295.176 C 62.000 294.943,61.839 294.852,61.642 294.974 C 61.445 295.096,61.182 294.929,61.057 294.604 C 60.928 294.269,60.565 294.115,60.215 294.250 C 59.813 294.404,59.600 294.254,59.600 293.819 C 59.600 293.453,59.420 293.264,59.200 293.400 C 58.980 293.536,58.800 293.457,58.800 293.224 C 58.800 292.674,57.326 291.200,56.776 291.200 C 56.543 291.200,56.452 291.039,56.574 290.842 C 56.696 290.645,56.515 290.376,56.172 290.245 C 55.830 290.113,55.662 289.823,55.800 289.600 C 55.938 289.377,55.770 289.087,55.428 288.955 C 55.085 288.824,54.904 288.555,55.026 288.358 C 55.148 288.161,55.057 288.000,54.824 288.000 C 54.591 288.000,54.400 287.640,54.400 287.200 C 54.400 286.760,54.220 286.400,54.000 286.400 C 53.780 286.400,53.600 286.040,53.600 285.600 C 53.600 285.160,53.346 284.800,53.035 284.800 C 52.723 284.800,52.519 284.487,52.579 284.100 C 52.638 283.715,52.533 283.300,52.345 283.178 C 52.158 283.055,51.965 282.483,51.917 281.906 C 51.869 281.330,51.688 280.945,51.515 281.052 C 51.181 281.259,51.056 279.821,51.137 276.700 C 51.165 275.655,51.010 274.800,50.793 274.800 C 50.537 274.800,50.400 248.759,50.400 200.000 C 50.400 147.070,50.525 125.200,50.829 125.200 C 51.064 125.200,51.224 124.795,51.184 124.300 C 51.013 122.191,51.225 118.768,51.515 118.948 C 51.688 119.055,51.869 118.670,51.917 118.094 C 51.965 117.517,52.158 116.945,52.345 116.822 C 52.533 116.700,52.638 116.285,52.579 115.900 C 52.519 115.513,52.723 115.200,53.035 115.200 C 53.346 115.200,53.600 114.840,53.600 114.400 C 53.600 113.960,53.780 113.600,54.000 113.600 C 54.220 113.600,54.400 113.156,54.400 112.614 C 54.400 112.033,54.733 111.450,55.211 111.194 C 55.657 110.955,55.916 110.588,55.786 110.377 C 55.656 110.167,55.830 109.887,56.172 109.755 C 56.515 109.624,56.696 109.355,56.574 109.158 C 56.452 108.961,56.543 108.800,56.776 108.800 C 57.326 108.800,58.800 107.326,58.800 106.776 C 58.800 106.543,58.961 106.452,59.158 106.574 C 59.355 106.696,59.624 106.515,59.755 106.172 C 59.887 105.830,60.167 105.656,60.377 105.786 C 60.588 105.916,60.955 105.657,61.194 105.211 C 61.465 104.705,62.037 104.398,62.714 104.394 C 63.562 104.389,63.669 104.303,63.200 104.000 C 62.745 103.706,62.914 103.611,63.900 103.606 C 64.808 103.602,65.200 103.412,65.200 102.976 C 65.200 102.633,65.380 102.464,65.600 102.600 C 65.820 102.736,66.003 102.612,66.006 102.324 C 66.011 101.908,66.084 101.913,66.358 102.345 C 66.583 102.700,66.755 102.736,66.852 102.449 C 66.933 102.206,67.482 101.967,68.071 101.919 C 68.660 101.870,69.055 101.688,68.948 101.515 C 68.776 101.238,72.510 100.985,73.930 101.177 C 74.221 101.216,74.687 101.060,74.966 100.829 C 75.310 100.542,86.514 100.404,110.096 100.396 C 141.297 100.384,144.745 100.320,144.964 99.750 C 145.097 99.402,145.430 99.197,145.703 99.294 C 146.246 99.488,149.321 96.500,149.530 95.575 C 149.602 95.259,149.823 94.941,150.022 94.869 C 150.744 94.609,150.477 55.315,149.751 55.036 C 149.402 54.903,149.203 54.569,149.308 54.295 C 149.488 53.826,148.791 52.895,148.108 52.692 C 147.939 52.641,147.845 52.465,147.900 52.300 C 147.955 52.135,147.865 52.045,147.700 52.100 C 147.535 52.155,147.359 52.061,147.308 51.892 C 147.105 51.209,146.174 50.512,145.705 50.692 C 145.431 50.797,145.090 50.579,144.948 50.208 C 144.742 49.671,144.620 49.642,144.350 50.066 C 144.091 50.476,144.011 50.482,144.006 50.093 C 143.998 49.422,64.378 49.382,63.707 50.053 M238.190 49.983 C 238.350 50.242,237.909 50.400,237.024 50.400 C 236.241 50.400,235.600 50.580,235.600 50.800 C 235.600 51.020,235.322 51.200,234.983 51.200 C 234.644 51.200,233.980 51.560,233.508 52.000 C 233.036 52.440,232.383 52.800,232.058 52.800 C 231.733 52.800,231.582 52.915,231.723 53.056 C 231.994 53.327,229.269 56.000,228.722 56.000 C 228.545 56.000,228.400 56.281,228.400 56.624 C 228.400 56.967,228.220 57.136,228.000 57.000 C 227.780 56.864,227.578 56.943,227.550 57.176 C 227.523 57.409,227.478 57.795,227.450 58.032 C 227.423 58.270,227.088 58.693,226.707 58.971 C 226.326 59.250,225.948 59.821,225.867 60.239 C 225.786 60.658,225.587 61.306,225.425 61.681 C 225.262 62.055,225.263 62.578,225.426 62.843 C 225.615 63.147,225.554 63.219,225.262 63.038 C 224.914 62.823,224.800 72.726,224.800 103.192 L 224.800 143.630 168.943 143.584 C 137.588 143.558,112.979 143.690,112.843 143.886 C 112.709 144.077,112.240 144.246,111.800 144.260 C 110.629 144.297,109.200 144.839,109.200 145.247 C 109.200 145.441,108.941 145.600,108.624 145.600 C 108.307 145.600,107.919 145.808,107.762 146.062 C 107.573 146.367,107.654 146.414,108.000 146.200 C 108.357 145.979,108.427 146.032,108.221 146.365 C 108.055 146.634,107.658 146.754,107.339 146.632 C 107.015 146.507,106.866 146.584,107.003 146.805 C 107.137 147.022,106.956 147.200,106.600 147.200 C 106.244 147.200,106.064 147.380,106.200 147.600 C 106.336 147.820,106.251 148.000,106.010 148.000 C 105.415 148.000,102.793 150.660,103.093 150.960 C 103.225 151.092,103.033 151.200,102.667 151.200 C 102.267 151.200,102.000 151.520,102.000 152.000 C 102.000 152.440,101.820 152.800,101.600 152.800 C 101.380 152.800,101.200 153.160,101.200 153.600 C 101.200 154.040,101.059 154.400,100.887 154.400 C 100.715 154.400,100.534 154.895,100.484 155.500 C 100.434 156.105,100.216 156.659,100.000 156.732 C 99.460 156.914,99.460 243.086,100.000 243.268 C 100.216 243.341,100.433 243.882,100.481 244.471 C 100.530 245.060,100.712 245.455,100.885 245.348 C 101.058 245.240,101.200 245.613,101.200 246.176 C 101.200 246.739,101.380 247.200,101.600 247.200 C 101.820 247.200,102.000 247.478,102.000 247.818 C 102.000 248.580,106.938 253.487,107.512 253.296 C 107.740 253.220,108.061 253.375,108.225 253.641 C 108.427 253.968,108.355 254.019,108.000 253.800 C 107.654 253.586,107.573 253.633,107.762 253.938 C 107.919 254.192,108.307 254.400,108.624 254.400 C 108.941 254.400,109.200 254.559,109.200 254.753 C 109.200 255.161,110.629 255.703,111.800 255.740 C 112.240 255.754,112.709 255.921,112.841 256.112 C 112.975 256.304,137.916 256.439,168.941 256.415 L 224.800 256.372 224.800 296.810 C 224.800 323.354,224.936 337.163,225.195 337.003 C 225.419 336.864,225.491 337.019,225.360 337.360 C 225.233 337.691,225.275 338.195,225.453 338.481 C 225.631 338.766,225.831 339.346,225.896 339.768 C 225.962 340.190,226.375 340.787,226.815 341.095 C 227.254 341.403,227.516 341.812,227.397 342.005 C 227.171 342.370,229.096 344.443,230.901 345.777 C 231.479 346.204,231.872 346.684,231.774 346.842 C 231.676 347.001,232.136 347.370,232.798 347.663 C 233.459 347.956,234.000 348.331,234.000 348.498 C 234.000 348.664,234.360 348.800,234.800 348.800 C 235.240 348.800,235.600 348.988,235.600 349.218 C 235.600 349.447,235.825 349.606,236.100 349.570 C 237.389 349.403,238.427 349.632,238.181 350.030 C 237.995 350.331,239.667 350.429,243.758 350.356 C 246.971 350.299,249.601 350.150,249.603 350.026 C 249.610 349.506,251.563 348.888,251.750 349.346 C 251.877 349.654,251.947 349.639,251.968 349.300 C 251.986 349.025,252.405 348.797,252.900 348.794 C 253.628 348.789,253.685 348.714,253.200 348.400 C 252.631 348.032,253.377 347.775,254.500 347.953 C 254.665 347.979,254.800 347.820,254.800 347.600 C 254.800 347.380,254.988 347.200,255.218 347.200 C 255.670 347.200,257.600 345.401,257.600 344.980 C 257.600 344.481,260.967 341.200,261.479 341.200 C 261.766 341.200,262.000 340.900,262.000 340.533 C 262.000 340.167,262.109 339.976,262.242 340.109 C 262.464 340.331,264.400 338.670,264.400 338.258 C 264.400 337.981,270.956 331.494,272.117 330.623 C 272.686 330.196,273.062 329.701,272.952 329.523 C 272.843 329.345,273.033 329.200,273.376 329.200 C 273.719 329.200,274.000 329.008,274.000 328.774 C 274.000 328.268,278.331 324.000,278.845 324.000 C 279.040 324.000,279.200 323.719,279.200 323.376 C 279.200 323.033,279.345 322.843,279.523 322.952 C 279.701 323.062,280.196 322.683,280.623 322.110 C 281.340 321.148,286.059 316.448,289.086 313.681 C 289.793 313.034,290.258 312.392,290.119 312.253 C 289.980 312.114,290.167 312.000,290.533 312.000 C 290.900 312.000,291.200 311.806,291.200 311.568 C 291.200 311.006,294.606 307.600,295.168 307.600 C 295.406 307.600,295.600 307.300,295.600 306.933 C 295.600 306.567,295.709 306.376,295.842 306.509 C 296.057 306.723,298.000 305.077,298.000 304.681 C 298.000 304.475,304.471 298.000,304.677 298.000 C 305.076 298.000,306.725 296.058,306.509 295.842 C 306.376 295.709,306.567 295.600,306.933 295.600 C 307.300 295.600,307.600 295.396,307.600 295.147 C 307.600 294.558,310.958 291.200,311.547 291.200 C 311.796 291.200,311.955 291.065,311.900 290.900 C 311.845 290.735,311.898 290.600,312.018 290.600 C 312.272 290.600,314.400 288.518,314.400 288.270 C 314.400 288.006,321.054 281.422,322.158 280.593 C 322.705 280.182,323.062 279.701,322.952 279.523 C 322.843 279.345,323.033 279.200,323.376 279.200 C 323.719 279.200,324.000 279.012,324.000 278.783 C 324.000 278.300,328.380 274.000,328.871 274.000 C 329.052 274.000,329.200 273.719,329.200 273.376 C 329.200 273.033,329.345 272.843,329.523 272.952 C 329.701 273.062,330.196 272.683,330.623 272.110 C 331.340 271.148,336.059 266.448,339.086 263.681 C 339.793 263.034,340.258 262.392,340.119 262.253 C 339.980 262.114,340.167 262.000,340.533 262.000 C 340.900 262.000,341.200 261.825,341.200 261.611 C 341.200 261.396,342.015 260.406,343.011 259.411 C 344.006 258.415,344.996 257.600,345.211 257.600 C 345.425 257.600,345.600 257.300,345.600 256.933 C 345.600 256.567,345.709 256.376,345.842 256.509 C 346.054 256.720,348.000 255.080,348.000 254.691 C 348.000 254.501,354.501 248.000,354.691 248.000 C 355.080 248.000,356.720 246.054,356.509 245.842 C 356.376 245.709,356.567 245.600,356.933 245.600 C 357.300 245.600,357.600 245.417,357.600 245.194 C 357.600 244.629,360.985 241.200,361.544 241.200 C 361.795 241.200,362.000 240.900,362.000 240.533 C 362.000 240.167,362.114 239.980,362.253 240.119 C 362.392 240.258,363.034 239.793,363.681 239.086 C 366.448 236.059,371.148 231.340,372.110 230.623 C 372.683 230.196,373.062 229.701,372.952 229.523 C 372.843 229.345,373.033 229.200,373.376 229.200 C 373.719 229.200,374.000 229.040,374.000 228.843 C 374.000 228.379,378.379 224.000,378.843 224.000 C 379.040 224.000,379.200 223.719,379.200 223.376 C 379.200 223.033,379.345 222.843,379.523 222.952 C 379.701 223.062,380.196 222.683,380.623 222.110 C 381.050 221.537,382.910 219.613,384.755 217.834 C 390.027 212.752,391.600 211.091,391.600 210.608 C 391.600 209.928,392.559 208.007,392.900 208.003 C 393.065 208.001,393.200 207.550,393.200 207.000 C 393.200 206.450,393.380 206.000,393.600 206.000 C 393.849 206.000,394.000 203.733,394.000 200.000 C 394.000 196.267,393.849 194.000,393.600 194.000 C 393.380 194.000,393.200 193.550,393.200 193.000 C 393.200 192.450,393.065 191.999,392.900 191.997 C 392.562 191.993,391.600 190.074,391.600 189.404 C 391.600 188.913,390.661 187.923,384.761 182.200 C 382.494 180.000,380.653 178.110,380.671 178.000 C 380.690 177.890,380.276 177.389,379.752 176.886 C 379.229 176.383,378.800 176.059,378.800 176.165 C 378.800 176.272,377.663 175.243,376.274 173.879 C 374.885 172.516,373.781 171.310,373.821 171.200 C 373.862 171.090,373.429 170.550,372.860 170.000 C 372.291 169.450,371.820 169.057,371.813 169.126 C 371.806 169.196,369.887 167.351,367.548 165.026 C 365.209 162.702,363.371 160.800,363.464 160.800 C 363.556 160.800,363.399 160.549,363.116 160.242 C 362.832 159.935,362.465 159.766,362.300 159.866 C 362.135 159.965,362.000 159.767,362.000 159.424 C 362.000 159.081,361.795 158.800,361.544 158.800 C 360.985 158.800,357.600 155.371,357.600 154.806 C 357.600 154.583,357.319 154.400,356.976 154.400 C 356.633 154.400,356.443 154.255,356.552 154.077 C 356.662 153.899,356.285 153.404,355.714 152.977 C 354.742 152.249,349.899 147.391,347.277 144.514 C 346.633 143.807,345.992 143.342,345.853 143.481 C 345.714 143.620,345.600 143.433,345.600 143.067 C 345.600 142.700,345.425 142.400,345.211 142.400 C 344.703 142.400,341.200 138.897,341.200 138.389 C 341.200 138.175,340.900 138.000,340.533 138.000 C 340.167 138.000,339.983 137.883,340.126 137.741 C 340.269 137.598,339.984 137.143,339.493 136.730 C 337.882 135.374,330.638 128.205,330.671 128.000 C 330.690 127.890,330.276 127.389,329.752 126.886 C 329.229 126.383,328.800 126.056,328.800 126.159 C 328.800 126.262,327.720 125.276,326.400 123.968 C 325.080 122.660,324.000 121.494,324.000 121.377 C 324.000 121.128,322.115 119.200,321.871 119.200 C 321.624 119.200,314.337 111.844,313.289 110.537 C 312.789 109.912,312.249 109.400,312.089 109.400 C 311.930 109.400,311.845 109.265,311.900 109.100 C 311.955 108.935,311.796 108.800,311.547 108.800 C 310.958 108.800,307.600 105.442,307.600 104.853 C 307.600 104.604,307.319 104.400,306.976 104.400 C 306.633 104.400,306.435 104.265,306.534 104.100 C 306.771 103.709,305.760 102.774,305.443 103.091 C 305.309 103.224,305.200 103.033,305.200 102.667 C 305.200 102.300,305.035 102.000,304.832 102.000 C 304.391 102.000,298.000 95.555,298.000 95.111 C 298.000 94.940,297.700 94.800,297.333 94.800 C 296.967 94.800,296.776 94.691,296.909 94.557 C 297.226 94.240,296.291 93.229,295.900 93.466 C 295.735 93.565,295.600 93.367,295.600 93.024 C 295.600 92.681,295.406 92.400,295.168 92.400 C 294.606 92.400,291.200 88.994,291.200 88.432 C 291.200 88.194,290.900 88.000,290.533 88.000 C 290.167 88.000,289.976 87.891,290.109 87.757 C 290.426 87.440,289.491 86.429,289.100 86.666 C 288.935 86.765,288.800 86.567,288.800 86.224 C 288.800 85.881,288.653 85.600,288.474 85.600 C 288.294 85.600,286.404 83.890,284.273 81.800 C 282.141 79.710,280.517 78.000,280.663 78.000 C 280.809 78.000,280.147 77.325,279.191 76.500 C 276.826 74.458,273.791 71.444,273.854 71.200 C 273.882 71.090,273.476 70.589,272.952 70.086 C 272.429 69.583,272.000 69.244,272.000 69.331 C 272.000 69.419,270.055 67.581,267.678 65.246 C 265.301 62.910,263.392 60.910,263.436 60.800 C 263.574 60.455,262.498 59.636,262.243 59.891 C 262.109 60.024,262.000 59.833,262.000 59.467 C 262.000 59.100,261.766 58.800,261.479 58.800 C 260.967 58.800,257.600 55.519,257.600 55.020 C 257.600 54.599,255.670 52.800,255.218 52.800 C 254.988 52.800,254.800 52.609,254.800 52.376 C 254.800 52.143,254.619 52.065,254.397 52.202 C 254.176 52.339,253.887 52.170,253.755 51.828 C 253.624 51.485,253.370 51.295,253.190 51.406 C 253.011 51.517,252.594 51.337,252.264 51.007 C 251.810 50.553,251.616 50.528,251.464 50.904 C 251.305 51.296,251.257 51.296,251.232 50.900 C 251.214 50.625,250.739 50.400,250.176 50.400 C 249.613 50.400,249.253 50.237,249.376 50.039 C 249.505 49.830,247.124 49.654,243.766 49.622 C 239.807 49.584,238.015 49.700,238.190 49.983 " stroke="none" fill="#24242c" fill-rule="evenodd"></path><path id="path1" d="M144.300 143.500 C 159.095 143.558,183.305 143.558,198.100 143.500 C 212.895 143.442,200.790 143.394,171.200 143.394 C 141.610 143.394,129.505 143.442,144.300 143.500 M144.300 256.700 C 159.095 256.758,183.305 256.758,198.100 256.700 C 212.895 256.642,200.790 256.594,171.200 256.594 C 141.610 256.594,129.505 256.642,144.300 256.700 " stroke="none" fill="#28242c" fill-rule="evenodd"></path><path id="path2" d="M144.300 143.500 C 159.095 143.558,183.305 143.558,198.100 143.500 C 212.895 143.442,200.790 143.394,171.200 143.394 C 141.610 143.394,129.505 143.442,144.300 143.500 M144.300 256.700 C 159.095 256.758,183.305 256.758,198.100 256.700 C 212.895 256.642,200.790 256.594,171.200 256.594 C 141.610 256.594,129.505 256.642,144.300 256.700 " stroke="none" fill="#28242c" fill-rule="evenodd"></path><path id="path3" d="M144.300 143.500 C 159.095 143.558,183.305 143.558,198.100 143.500 C 212.895 143.442,200.790 143.394,171.200 143.394 C 141.610 143.394,129.505 143.442,144.300 143.500 M144.300 256.700 C 159.095 256.758,183.305 256.758,198.100 256.700 C 212.895 256.642,200.790 256.594,171.200 256.594 C 141.610 256.594,129.505 256.642,144.300 256.700 " stroke="none" fill="#28242c" fill-rule="evenodd"></path><path id="path4" d="M144.300 143.500 C 159.095 143.558,183.305 143.558,198.100 143.500 C 212.895 143.442,200.790 143.394,171.200 143.394 C 141.610 143.394,129.505 143.442,144.300 143.500 M144.300 256.700 C 159.095 256.758,183.305 256.758,198.100 256.700 C 212.895 256.642,200.790 256.594,171.200 256.594 C 141.610 256.594,129.505 256.642,144.300 256.700 " stroke="none" fill="#28242c" fill-rule="evenodd"></path></g></svg>