<?xml version="1.0" encoding="utf-8"?>
<!-- Generator: Adobe Illustrator 28.0.0, SVG Export Plug-In . SVG Version: 6.00 Build 0)  -->
<svg version="1.1" id="Layer_1" xmlns="http://www.w3.org/2000/svg" xmlns:xlink="http://www.w3.org/1999/xlink" x="0px" y="0px"
	 viewBox="0 0 33 33" style="enable-background:new 0 0 33 33;" xml:space="preserve">
<style type="text/css">
	.st0{fill:#68676B;}
</style>
<g id="Brewer-CLP">
	<g id="shipping-icon" transform="translate(-6.000000, -466.000000)">
		<g id="Card_x2F_Elements_x2F_Free-Shipping" transform="translate(6.000000, 462.000000)">
			
				<g id="Icon_x2F_ShipsBy" transform="translate(16.909091, 13.000000) scale(-1, 1) translate(-16.909091, -13.000000) translate(0.909091, 4.000000)">
				<path id="Combined-Shape" class="st0" d="M19.9,8.6c0.9,0,1.6,0.8,1.7,1.7l0,0.1l0,0.6l3.5,0c0.6,0,1.1,0.3,1.4,0.8l0.1,0.1
					l2.2,4.3c0.1,0.1,0.1,0.2,0.1,0.3c0,0.1,0,0.1,0.1,0.2l0,0.1c0,0.1,0,0.2,0,0.3l0,0.2l0,3.1c0,0.4-0.2,0.8-0.5,1.1
					c-0.3,0.3-0.6,0.4-1,0.5l-0.1,0l-0.8,0l0,0.1c-0.3,1.3-1.4,2.3-2.8,2.4l-0.2,0c-1.4,0-2.6-1-2.9-2.4l0-0.1h-4.8l0,0.1
					c-0.3,1.3-1.4,2.3-2.8,2.4l-0.2,0c-1.4,0-2.6-1-2.9-2.4l0-0.1l-1.2,0c-0.9,0-1.6-0.8-1.7-1.7l0-0.1c0-0.3,0.2-0.5,0.5-0.5
					c0.3,0,0.5,0.2,0.5,0.5l0,0.1c0,0.4,0.3,0.7,0.5,0.8l0.1,0l1.2,0l0.1-0.4c0.4-1.1,1.5-1.9,2.8-1.9c1.2,0,2.3,0.7,2.8,1.8
					l0.1,0.2l0.1,0.4l4.7,0c0,0,0-0.1,0-0.1l0-0.1V10.4c0-0.4-0.3-0.7-0.5-0.8l-0.1,0H8.8c-0.3,0-0.6,0.3-0.6,0.7l0,0.1
					c0,0.3-0.2,0.5-0.5,0.5c-0.3,0-0.5-0.2-0.5-0.5c0-1,0.7-1.8,1.6-1.8l0.1,0H19.9z M23.7,19.6c-0.8,0-1.5,0.5-1.8,1.2l0,0.1
					c0,0.1-0.1,0.2-0.2,0.3l0,0.1c0,0.1,0,0.1,0,0.2l0,0c0,1.1,0.9,1.9,1.9,1.9c1,0,1.9-0.8,1.9-1.8l0-0.1c0-0.1,0-0.1,0-0.2
					L25.5,21C25.3,20.1,24.5,19.6,23.7,19.6z M12.9,19.7c-0.8,0-1.5,0.4-1.7,1l0,0.1L11,21.5l0,0.1c0.1,1,0.9,1.8,1.9,1.8
					c1,0,1.9-0.8,1.9-1.8l0-0.1l-0.1-0.7C14.5,20.2,13.7,19.7,12.9,19.7z M25.1,12.1h-3.5v7.2l0.1-0.1c0.5-0.5,1.2-0.8,1.9-0.8
					l0.2,0c1.3,0,2.4,0.8,2.8,2l0.1,0.2l0.1,0.3l0.8,0c0.1,0,0.3-0.1,0.4-0.2c0.1-0.1,0.1-0.2,0.1-0.3l0-0.1l0-3l-4.2,0
					c-0.3,0-0.5-0.2-0.5-0.5l0-0.1v-3.3c0-0.3,0.2-0.5,0.5-0.5c0.3,0,0.5,0.2,0.5,0.5l0,0.1l0,2.8h3.3l-2-3.9
					C25.5,12.3,25.3,12.2,25.1,12.1L25.1,12.1z M8.9,18.3c0.3,0,0.5,0.2,0.5,0.5c0,0.3-0.2,0.5-0.5,0.5l-0.1,0h-6
					c-0.3,0-0.5-0.2-0.5-0.5c0-0.3,0.2-0.5,0.5-0.5l0.1,0H8.9z M11.3,16c0.3,0,0.5,0.2,0.5,0.5c0,0.3-0.2,0.5-0.5,0.5l-0.1,0H3.7
					c-0.3,0-0.5-0.2-0.5-0.5c0-0.3,0.2-0.5,0.5-0.5l0.1,0H11.3z M8.9,13.5c0.3,0,0.5,0.2,0.5,0.5c0,0.3-0.2,0.5-0.5,0.5l-0.1,0h-6
					c-0.3,0-0.5-0.2-0.5-0.5c0-0.3,0.2-0.5,0.5-0.5l0.1,0H8.9z M11.3,11.4c0.3,0,0.5,0.2,0.5,0.5c0,0.3-0.2,0.5-0.5,0.5l-0.1,0H3.7
					c-0.3,0-0.5-0.2-0.5-0.5c0-0.3,0.2-0.5,0.5-0.5l0.1,0H11.3z"/>
			</g>
		</g>
	</g>
</g>
</svg>
